<?xml version="1.0" standalone="no"?>
<!DOCTYPE svg PUBLIC "-//W3C//DTD SVG 20010904//EN"
 "http://www.w3.org/TR/2001/REC-SVG-20010904/DTD/svg10.dtd">
<svg version="1.0" xmlns="http://www.w3.org/2000/svg"
 width="512.000000pt" height="512.000000pt" viewBox="0 0 512.000000 512.000000"
 preserveAspectRatio="xMidYMid meet">
<metadata>
Created by potrace 1.11, written by Peter Selinger 2001-2013
</metadata>
<g transform="translate(0.000000,512.000000) scale(0.100000,-0.100000)"
fill="#000000" stroke="none">
<path d="M395 5106 c-97 -23 -164 -63 -241 -140 -80 -80 -122 -154 -143 -254
-16 -75 -16 -4229 0 -4304 21 -100 63 -174 143 -254 80 -80 154 -122 254 -143
75 -16 4229 -16 4304 0 100 21 174 63 254 143 80 80 122 154 143 254 16 75 16
4229 0 4304 -21 100 -63 174 -143 254 -80 80 -154 122 -254 143 -79 17 -4248
14 -4317 -3z m1504 -1216 c145 -35 308 -125 434 -242 l58 -53 -67 -80 c-36
-44 -77 -93 -90 -108 l-24 -29 -55 50 c-83 76 -197 143 -288 169 -106 31 -277
32 -393 3 -407 -103 -638 -507 -621 -1085 7 -260 51 -444 147 -622 137 -254
340 -385 620 -400 225 -12 397 54 580 224 39 36 75 62 79 57 4 -5 45 -51 90
-102 l83 -92 -27 -33 c-39 -47 -151 -142 -220 -188 -83 -55 -165 -93 -270
-125 -85 -26 -100 -28 -285 -28 -180 0 -203 2 -295 27 -365 99 -634 364 -765
755 -110 329 -113 773 -8 1101 83 260 231 475 429 621 132 98 343 180 514 200
109 12 276 3 374 -20z m2172 -1 c97 -23 195 -68 294 -135 84 -57 185 -143 185
-158 0 -6 -39 -57 -86 -113 l-85 -103 -60 53 c-76 67 -180 130 -261 158 -88
31 -285 38 -395 14 -277 -59 -495 -282 -588 -600 -44 -152 -58 -280 -53 -489
4 -161 9 -210 32 -311 102 -444 358 -693 731 -712 232 -12 402 55 594 233 l60
55 39 -43 c22 -24 63 -70 91 -102 l52 -60 -63 -64 c-91 -92 -179 -156 -293
-212 -159 -80 -226 -94 -445 -94 -231 -1 -333 21 -510 109 -112 56 -191 117
-292 224 -168 179 -273 410 -324 716 -26 150 -23 472 4 625 94 522 403 888
845 1001 168 43 370 46 528 8z"/>
</g>
</svg>
